<mxfile host="app.diagrams.net" modified="2022-02-18T03:52:18.451Z" agent="5.0 (Macintosh; Intel Mac OS X 10_15_7) AppleWebKit/605.1.15 (KHTML, like Gecko) Version/15.3 Safari/605.1.15" etag="ky7RtfS2E-eki9W2xER7" version="16.5.3" type="github">
  <diagram id="pVmP_ZlypJW5fgTROmLy" name="Page-1">
    <mxGraphModel dx="924" dy="755" grid="1" gridSize="10" guides="1" tooltips="1" connect="1" arrows="1" fold="1" page="1" pageScale="1" pageWidth="827" pageHeight="1169" math="0" shadow="0">
      <root>
        <mxCell id="0" />
        <mxCell id="1" parent="0" />
        <mxCell id="YaLD1JXw7uaXsb9LfMqk-1" value="INTLVideoAPI（INTLVideoAPI.cs）" style="rounded=1;whiteSpace=wrap;html=1;" vertex="1" parent="1">
          <mxGeometry x="180" y="120" width="240" height="60" as="geometry" />
        </mxCell>
      </root>
    </mxGraphModel>
  </diagram>
</mxfile>
